<?xml version="1.0" encoding="utf-8"?>
<!-- Generator: Adobe Illustrator 26.0.3, SVG Export Plug-In . SVG Version: 6.00 Build 0)  -->
<svg version="1.1" id="Warstwa_1" xmlns="http://www.w3.org/2000/svg" xmlns:xlink="http://www.w3.org/1999/xlink" x="0px" y="0px"
	 viewBox="0 0 3746 1246" style="enable-background:new 0 0 3746 1246;" xml:space="preserve">
<style type="text/css">
	.st0{fill:url(#SVGID_1_);}
	.st1{fill:url(#SVGID_00000071524021950510540570000013204397909336235925_);}
	.st2{fill:url(#SVGID_00000011725861516725210470000015934772856536360833_);}
	.st3{fill:url(#SVGID_00000090264834828752955300000003154427428400476350_);}
	.st4{fill:url(#SVGID_00000158716709495479628930000002464012092972513170_);}
	.st5{fill:url(#SVGID_00000005245272922667699990000011912683298013559716_);}
	.st6{fill:url(#SVGID_00000109752543024662776040000013782024359813726138_);}
	.st7{fill:url(#SVGID_00000098935243126794147160000001735934250132526227_);}
	.st8{fill:url(#SVGID_00000177486049089065579690000001989994305938070719_);}
	.st9{fill:url(#SVGID_00000039841597567265442180000014226038499918901178_);}
	.st10{fill:#60338A;}
	.st11{fill:url(#SVGID_00000143585211495390731410000009164722870518847928_);}
	.st12{fill:url(#SVGID_00000075850933442961320630000008054419772013757860_);}
	.st13{fill:url(#SVGID_00000049198555402041059100000012031837196962835111_);}
	.st14{fill:url(#SVGID_00000049913779942191751750000003878016305563053999_);}
	.st15{fill:url(#SVGID_00000137130136461721056470000016222254016933321140_);}
	.st16{fill:url(#SVGID_00000005980075055826548350000012615886159586789525_);}
	.st17{fill:url(#SVGID_00000072267028690151291380000008498163805068909964_);}
	.st18{fill:url(#SVGID_00000178896989886944355370000003443449744320055197_);}
	.st19{fill:url(#SVGID_00000065753127835674538990000012401851785551974555_);}
	.st20{fill:url(#SVGID_00000132080101128434614050000007447514332775410867_);}
</style>
<g>
	<g>
		<linearGradient id="SVGID_1_" gradientUnits="userSpaceOnUse" x1="-1044.3334" y1="100.2598" x2="-1044.3334" y2="1093.8593">
			<stop  offset="0" style="stop-color:#56BDBB"/>
			<stop  offset="0.5335" style="stop-color:#754695"/>
			<stop  offset="1" style="stop-color:#282E69"/>
		</linearGradient>
		<path class="st0" d="M-802.21,391.92c14.24-83.57,8.56-150.4,8.56-150.4s-13.18-1.12-35.15-1.12c-27.5,0-68.79,1.76-115.25,9.68
			c-49.03-69.16-100.29-112.4-100.29-112.4s-51.26,43.24-100.29,112.39c-46.46-7.92-87.75-9.68-115.26-9.68
			c-21.96,0-35.15,1.12-35.15,1.12s-5.67,66.83,8.56,150.4c-69.16,49.03-112.4,100.29-112.4,100.29s43.24,51.27,112.4,100.29
			c-14.24,83.57-8.56,150.4-8.56,150.4s13.18,1.12,35.15,1.12c27.5,0,68.79-1.76,115.25-9.68c49.03,69.16,100.29,112.4,100.29,112.4
			s51.26-43.24,100.29-112.39c46.46,7.92,87.75,9.68,115.26,9.68c21.96,0,35.15-1.12,35.15-1.12s5.67-66.83-8.56-150.4
			c69.16-49.03,112.4-100.29,112.4-100.29S-733.05,440.95-802.21,391.92z M-867.02,492.21c0,22.92-2.73,46.34-8.1,70.09
			c-12.99,20.59-27.63,39.08-43.83,55.29c-9.16,9.16-18.82,17.58-28.86,25.36c-32.87,10.38-65.21,15.63-96.52,15.63
			c-31.31,0-63.65-5.25-96.52-15.63c-10.04-7.78-19.71-16.2-28.86-25.36c-16.2-16.2-30.84-34.7-43.83-55.29
			c-5.37-23.75-8.1-47.17-8.1-70.09c0-22.92,2.73-46.34,8.1-70.09c12.99-20.59,27.63-39.08,43.83-55.29
			c9.16-9.16,18.82-17.58,28.86-25.36c32.87-10.38,65.21-15.63,96.52-15.63c31.31,0,63.65,5.25,96.52,15.63
			c10.04,7.78,19.71,16.2,28.86,25.36c16.2,16.2,30.84,34.7,43.83,55.29C-869.75,445.87-867.02,469.3-867.02,492.21z
			 M-911.21,359.09c-2.4-2.4-4.84-4.73-7.3-7.03c1.07,0.43,2.14,0.85,3.21,1.29c7.16,2.97,14.35,6.19,21.54,9.63
			c3.71,9.2,7.03,18.38,9.97,27.52C-892.15,379.57-901.26,369.05-911.21,359.09z M-969.94,312.74
			c-18.94-11.82-38.72-21.73-58.78-30.05c27.09-9.28,54.18-15.87,79.78-20.54c16.29,23.54,30.29,47.27,41.86,70.92
			C-927.16,324.75-948.18,317.78-969.94,312.74z M-1002.87,306.74c-13.6-1.79-27.43-2.79-41.46-2.79c-14.03,0-27.85,0.99-41.46,2.79
			c13.6-6.96,27.49-13.06,41.46-18.4C-1030.36,293.68-1016.47,299.79-1002.87,306.74z M-1118.73,312.74
			c-21.76,5.04-42.78,12.02-62.85,20.33c11.57-23.65,25.56-47.38,41.86-70.92c25.6,4.66,52.69,11.26,79.78,20.54
			C-1080,291-1099.79,300.92-1118.73,312.74z M-1173.37,353.35c1.07-0.44,2.14-0.86,3.21-1.29c-2.46,2.3-4.9,4.64-7.3,7.03
			c-9.95,9.95-19.06,20.48-27.43,31.4c2.94-9.14,6.27-18.32,9.97-27.52C-1187.72,359.54-1180.53,356.32-1173.37,353.35z
			 M-1223.82,417.87c-11.82,18.95-21.76,38.75-30.08,58.83c-7.35-21.43-13.45-44.19-18.27-68.06
			c20.81-14.65,41.77-27.48,62.69-38.37C-1215.19,385.66-1220.04,401.56-1223.82,417.87z M-1244,481.36
			c4.4-10.64,9.15-20.89,14.21-30.75c-1.81,13.65-2.81,27.53-2.81,41.6s1,27.95,2.81,41.6c-5.07-9.87-9.81-20.11-14.21-30.75
			c-1.47-3.56-2.87-7.2-4.27-10.85C-1246.87,488.57-1245.47,484.93-1244,481.36z M-1223.82,566.56c3.78,16.31,8.63,32.21,14.33,47.6
			c-20.92-10.89-41.88-23.72-62.69-38.37c4.83-23.87,10.92-46.63,18.27-68.06C-1245.58,527.8-1235.64,547.6-1223.82,566.56z
			 M-1204.89,593.93c8.37,10.93,17.48,21.45,27.44,31.41c2.4,2.4,4.84,4.73,7.3,7.03c-1.07-0.43-2.14-0.85-3.22-1.29
			c-7.16-2.97-14.35-6.19-21.54-9.63C-1198.62,612.25-1201.95,603.07-1204.89,593.93z M-1118.73,671.69
			c18.94,11.82,38.72,21.73,58.78,30.05c-27.09,9.28-54.18,15.87-79.77,20.54c-16.29-23.54-30.29-47.27-41.86-70.92
			C-1161.5,659.67-1140.48,666.65-1118.73,671.69z M-1085.79,677.68c13.6,1.79,27.43,2.79,41.46,2.79c14.03,0,27.86-0.99,41.46-2.79
			c-13.6,6.96-27.49,13.06-41.46,18.4C-1058.3,690.74-1072.19,684.64-1085.79,677.68z M-969.94,671.69
			c21.76-5.04,42.78-12.02,62.85-20.33c-11.57,23.65-25.56,47.38-41.86,70.92c-25.6-4.66-52.69-11.26-79.78-20.54
			C-1008.66,693.42-988.88,683.5-969.94,671.69z M-915.3,631.07c-1.07,0.44-2.14,0.86-3.21,1.29c2.46-2.3,4.9-4.64,7.3-7.03
			c9.95-9.95,19.06-20.47,27.43-31.4c-2.94,9.14-6.27,18.32-9.97,27.52C-900.95,624.89-908.13,628.1-915.3,631.07z M-864.85,566.56
			c11.82-18.96,21.76-38.76,30.09-58.83c7.35,21.43,13.45,44.19,18.27,68.06c-20.81,14.65-41.77,27.48-62.69,38.37
			C-873.47,598.77-868.63,582.87-864.85,566.56z M-844.55,502.78c-4.43,10.74-9.22,21.09-14.33,31.04
			c1.81-13.65,2.81-27.53,2.81-41.61c0-14.08-1-27.95-2.81-41.6c5.07,9.87,9.81,20.11,14.21,30.75c1.47,3.56,2.87,7.2,4.27,10.84
			C-841.76,495.76-843.12,499.31-844.55,502.78z M-864.85,417.87c-3.78-16.31-8.63-32.21-14.33-47.6
			c20.92,10.89,41.88,23.72,62.69,38.38c-4.83,23.87-10.93,46.62-18.28,68.05C-843.09,456.62-853.02,436.82-864.85,417.87z
			 M-828.79,251.35c10.46,0,18.9,0.26,24.79,0.53c0.89,19.88,1.71,69.15-7.33,127.97c-0.27,1.73-0.58,3.41-0.86,5.13
			c-23.95-16.29-50.72-32.04-79.65-45.27c-13.21-28.91-28.96-55.67-45.24-79.61C-892.74,252.89-853.85,251.35-828.79,251.35z
			 M-1129.95,248.43c35.23-48.11,70.87-82.59,85.62-96.09c14.75,13.5,50.39,47.98,85.62,96.09c0.93,1.27,1.83,2.54,2.75,3.8
			c-28.47,5.41-58.55,13.2-88.36,24.31c-29.82-11.11-59.9-18.9-88.37-24.31C-1131.78,250.96-1130.88,249.69-1129.95,248.43z
			 M-1277.26,380.37c-9.11-58.94-8.29-108.53-7.4-128.5c5.89-0.27,14.34-0.53,24.79-0.53c0,0,0.01,0,0.01,0
			c25.06,0,63.94,1.54,108.27,8.75c-16.29,23.94-32.03,50.7-45.24,79.61c-28.93,13.22-55.7,28.97-79.65,45.27
			C-1276.73,383.44-1277.02,381.92-1277.26,380.37z M-1369.22,492.21c16.19-16.98,46.82-46.9,87.28-76.57
			c5.25,24.92,12.35,50.84,21.94,76.57c-9.59,25.73-16.69,51.65-21.94,76.57C-1322.41,539.11-1353.03,509.19-1369.22,492.21z
			 M-1259.88,733.08c-10.45,0-18.9-0.26-24.79-0.53c-0.88-19.97-1.7-69.56,7.4-128.5c0.24-1.55,0.52-3.06,0.77-4.61
			c23.95,16.29,50.72,32.05,79.65,45.27c13.21,28.91,28.96,55.67,45.24,79.61C-1195.92,731.53-1234.81,733.08-1259.88,733.08z
			 M-958.72,736c-35.24,48.12-70.88,82.6-85.62,96.09c-14.69-13.43-50.1-47.68-85.3-95.66c-1.03-1.41-2.04-2.82-3.06-4.23
			c28.47-5.41,58.55-13.2,88.36-24.31c29.82,11.11,59.9,18.9,88.37,24.31C-956.88,733.46-957.79,734.73-958.72,736z M-811.41,604.05
			c9.11,58.94,8.29,108.53,7.4,128.5c-5.89,0.27-14.34,0.53-24.79,0.53c-25.06,0-63.95-1.54-108.28-8.75
			c16.29-23.94,32.03-50.7,45.24-79.61c28.93-13.22,55.7-28.97,79.65-45.27C-811.93,600.99-811.65,602.5-811.41,604.05z
			 M-806.72,568.78c-5.25-24.92-12.35-50.84-21.94-76.57c9.59-25.73,16.69-51.65,21.94-76.57c40.46,29.67,71.09,59.59,87.28,76.57
			C-735.64,509.19-766.26,539.11-806.72,568.78z"/>
		
			<linearGradient id="SVGID_00000155855250915511366300000011943249106839284884_" gradientUnits="userSpaceOnUse" x1="-1161.6102" y1="100.2598" x2="-1161.6102" y2="1093.8593">
			<stop  offset="0" style="stop-color:#56BDBB"/>
			<stop  offset="0.5335" style="stop-color:#754695"/>
			<stop  offset="1" style="stop-color:#282E69"/>
		</linearGradient>
		<path style="fill:url(#SVGID_00000155855250915511366300000011943249106839284884_);" d="M-1119.29,189.55
			c-35.32-16.9-60.94-24.58-60.94-24.58s-11.9,23.95-23.7,61.28c15.81,0.85,33.65,2.48,52.61,5.39
			C-1140.48,215.81-1129.47,201.66-1119.29,189.55z M-1189.1,216.26c5.78-16.77,11.22-29.87,14.72-37.82
			c8.18,2.87,21.44,7.84,37.66,15.1c-6.9,8.65-13.5,17.43-19.73,26.28C-1167.15,218.32-1178.07,217.13-1189.1,216.26z"/>
		
			<linearGradient id="SVGID_00000101826370314661271690000005226326773847767217_" gradientUnits="userSpaceOnUse" x1="-926.0757" y1="100.2598" x2="-926.0757" y2="1093.8593">
			<stop  offset="0" style="stop-color:#56BDBB"/>
			<stop  offset="0.5335" style="stop-color:#754695"/>
			<stop  offset="1" style="stop-color:#282E69"/>
		</linearGradient>
		<path style="fill:url(#SVGID_00000101826370314661271690000005226326773847767217_);" d="M-883.76,758.18
			c-15.81-0.85-33.65-2.48-52.61-5.39c-10.84,15.83-21.84,29.97-32.03,42.09c35.32,16.9,60.94,24.58,60.94,24.58
			S-895.56,795.51-883.76,758.18z M-950.97,790.88c6.9-8.64,13.5-17.43,19.72-26.28c10.71,1.5,21.64,2.69,32.66,3.56
			c-5.78,16.77-11.22,29.86-14.72,37.81C-921.5,803.1-934.78,798.12-950.97,790.88z"/>
		
			<linearGradient id="SVGID_00000085214952811476757350000007978174277653960346_" gradientUnits="userSpaceOnUse" x1="-1337.8867" y1="100.2598" x2="-1337.8867" y2="1093.8593">
			<stop  offset="0" style="stop-color:#56BDBB"/>
			<stop  offset="0.5335" style="stop-color:#754695"/>
			<stop  offset="1" style="stop-color:#282E69"/>
		</linearGradient>
		<path style="fill:url(#SVGID_00000085214952811476757350000007978174277653960346_);" d="M-1304.09,383.95
			c-3.53-18.86-5.75-36.64-7.11-52.41c-36.93,13.03-60.47,25.71-60.47,25.71s8.52,25.34,26.57,60.09
			C-1333.33,406.77-1319.56,395.3-1304.09,383.95z M-1320.7,346.69c1.23,10.99,2.78,21.87,4.63,32.53
			c-8.63,6.51-17.2,13.4-25.61,20.58c-7.77-15.95-13.18-29.05-16.33-37.15C-1350.18,358.89-1337.27,353.02-1320.7,346.69z"/>
		
			<linearGradient id="SVGID_00000057140510369897653230000010551641816811313799_" gradientUnits="userSpaceOnUse" x1="-749.7991" y1="100.2598" x2="-749.7991" y2="1093.8593">
			<stop  offset="0" style="stop-color:#56BDBB"/>
			<stop  offset="0.5335" style="stop-color:#754695"/>
			<stop  offset="1" style="stop-color:#282E69"/>
		</linearGradient>
		<path style="fill:url(#SVGID_00000057140510369897653230000010551641816811313799_);" d="M-783.59,600.47
			c3.53,18.86,5.75,36.64,7.11,52.41c36.93-13.03,60.47-25.71,60.47-25.71s-8.52-25.34-26.57-60.09
			C-754.35,577.66-768.13,589.12-783.59,600.47z M-766.98,637.73c-1.23-10.99-2.78-21.87-4.63-32.53
			c8.63-6.51,17.2-13.4,25.61-20.58c7.77,15.95,13.18,29.06,16.33,37.15C-737.49,625.53-750.38,631.39-766.98,637.73z"/>
		
			<linearGradient id="SVGID_00000183239135590097128240000012385809290771202999_" gradientUnits="userSpaceOnUse" x1="-1337.7551" y1="100.2598" x2="-1337.7551" y2="1093.8593">
			<stop  offset="0" style="stop-color:#56BDBB"/>
			<stop  offset="0.5335" style="stop-color:#754695"/>
			<stop  offset="1" style="stop-color:#282E69"/>
		</linearGradient>
		<path style="fill:url(#SVGID_00000183239135590097128240000012385809290771202999_);" d="M-1371.09,628.6
			c0,0,23.95,11.9,61.28,23.7c0.85-15.81,2.48-33.65,5.39-52.61c-15.83-10.84-29.97-21.84-42.09-32.03
			C-1363.41,602.99-1371.09,628.6-1371.09,628.6z M-1316.23,604.81c-1.5,10.71-2.69,21.64-3.56,32.66
			c-16.77-5.78-29.86-11.22-37.81-14.72c2.88-8.2,7.86-21.47,15.1-37.66C-1333.87,591.99-1325.08,598.58-1316.23,604.81z"/>
		
			<linearGradient id="SVGID_00000114031379156783035670000005439258124452838808_" gradientUnits="userSpaceOnUse" x1="-749.9307" y1="100.2598" x2="-749.9307" y2="1093.8593">
			<stop  offset="0" style="stop-color:#56BDBB"/>
			<stop  offset="0.5335" style="stop-color:#754695"/>
			<stop  offset="1" style="stop-color:#282E69"/>
		</linearGradient>
		<path style="fill:url(#SVGID_00000114031379156783035670000005439258124452838808_);" d="M-716.6,355.83
			c0,0-23.95-11.9-61.28-23.7c-0.85,15.81-2.48,33.65-5.39,52.61c15.83,10.84,29.97,21.84,42.09,32.03
			C-724.28,381.44-716.6,355.83-716.6,355.83z M-771.45,379.62c1.5-10.71,2.69-21.64,3.56-32.66c16.77,5.78,29.86,11.22,37.81,14.72
			c-2.88,8.2-7.86,21.47-15.1,37.66C-753.82,392.44-762.61,385.84-771.45,379.62z"/>
		
			<linearGradient id="SVGID_00000128457064059128506600000015822889414130347149_" gradientUnits="userSpaceOnUse" x1="-1161.6101" y1="100.2598" x2="-1161.6101" y2="1093.8593">
			<stop  offset="0" style="stop-color:#56BDBB"/>
			<stop  offset="0.5335" style="stop-color:#754695"/>
			<stop  offset="1" style="stop-color:#282E69"/>
		</linearGradient>
		<path style="fill:url(#SVGID_00000128457064059128506600000015822889414130347149_);" d="M-1118.71,793.48
			c-10.58-11.77-22.04-25.55-33.39-41.01c-18.86,3.53-36.64,5.75-52.41,7.11c13.03,36.93,25.71,60.47,25.71,60.47
			S-1153.46,811.53-1118.71,793.48z M-1156.83,764.44c6.51,8.63,13.4,17.2,20.58,25.61c-15.94,7.77-29.05,13.18-37.15,16.33
			c-3.76-7.83-9.63-20.74-15.96-37.31C-1178.37,767.84-1167.49,766.29-1156.83,764.44z"/>
		
			<linearGradient id="SVGID_00000035504569967212655450000003614185989861427359_" gradientUnits="userSpaceOnUse" x1="-926.0757" y1="100.2598" x2="-926.0757" y2="1093.8593">
			<stop  offset="0" style="stop-color:#56BDBB"/>
			<stop  offset="0.5335" style="stop-color:#754695"/>
			<stop  offset="1" style="stop-color:#282E69"/>
		</linearGradient>
		<path style="fill:url(#SVGID_00000035504569967212655450000003614185989861427359_);" d="M-883.18,224.85
			c-13.03-36.93-25.71-60.47-25.71-60.47s-25.34,8.52-60.09,26.57c10.58,11.77,22.04,25.55,33.39,41.01
			C-916.73,228.43-898.94,226.21-883.18,224.85z M-914.28,178.05c3.76,7.83,9.63,20.74,15.96,37.31
			c-10.99,1.23-21.87,2.78-32.53,4.63c-6.51-8.63-13.4-17.2-20.58-25.61C-935.49,186.61-922.38,181.19-914.28,178.05z"/>
		
			<linearGradient id="SVGID_00000139982507361552245350000018387086408996310684_" gradientUnits="userSpaceOnUse" x1="-1043.8429" y1="100.2598" x2="-1043.8429" y2="1093.8593">
			<stop  offset="0" style="stop-color:#56BDBB"/>
			<stop  offset="0.5335" style="stop-color:#754695"/>
			<stop  offset="1" style="stop-color:#282E69"/>
		</linearGradient>
		<path style="fill:url(#SVGID_00000139982507361552245350000018387086408996310684_);" d="M-952.51,400.71
			c-12.37-12.37-25.99-22.89-40.32-31.82c-16.45-3.81-33.51-6.01-51.01-6.01c-5.34,0-10.62,0.23-15.87,0.62
			c-3.8-2.78-7.72-5.33-11.74-7.64c-7.68-1.5-15.59-2.34-23.65-2.34c-1.34,0-2.68,0.02-4.02,0.07c-9.45,0.33-18.63,1.84-27.44,4.22
			c-7.57,5.1-14.73,11.04-21.17,17.96c-6.45,6.92-11.87,14.48-16.42,22.39c-1.75,8.96-2.61,18.22-2.27,27.67
			c0.15,4.24,0.57,8.41,1.16,12.53c-0.57,0.89-1.16,1.78-1.72,2.67c-3.81,16.45-6.01,33.51-6.01,51.01c0,17.5,2.2,34.56,6.01,51.01
			c8.94,14.33,19.45,27.95,31.82,40.32c12.37,12.37,25.99,22.89,40.32,31.82c16.45,3.81,33.51,6.01,51.01,6.01
			c16.35,0,32.32-1.94,47.77-5.3c3.59,3.42,7.46,6.4,11.53,8.94c5.21,1.21,10.61,1.91,16.14,1.91c5.54,0,10.94-0.7,16.14-1.91
			c4.53-2.84,8.84-6.17,12.76-10.1c3.92-3.93,7.24-8.25,10.07-12.8c1.21-5.22,1.9-10.64,1.9-16.19c0-5.55-0.69-10.97-1.9-16.19
			c-1.48-2.39-3.12-4.71-4.89-6.94c4.9-6.34,9.44-12.87,13.62-19.57c3.81-16.45,6.01-33.51,6.01-51.01s-2.2-34.56-6.01-51.01
			C-929.63,426.7-940.14,413.09-952.51,400.71z M-938.04,573.13c0.89,4.28,1.34,8.52,1.34,12.63c0,4.11-0.45,8.35-1.34,12.63
			c-2.39,3.65-5.06,6.97-7.95,9.87c-2.89,2.9-6.2,5.58-9.84,7.97c-4.26,0.89-8.48,1.34-12.57,1.34c-4.09,0-8.31-0.45-12.57-1.34
			c-3.64-2.39-6.94-5.07-9.84-7.97c-2.9-2.9-5.57-6.22-7.95-9.87c-0.89-4.28-1.34-8.52-1.34-12.63c0-4.11,0.45-8.35,1.34-12.63
			c2.39-3.65,5.06-6.97,7.95-9.87c2.89-2.9,6.2-5.58,9.83-7.97c4.26-0.89,8.48-1.34,12.57-1.34c4.09,0,8.31,0.45,12.57,1.34
			c3.64,2.39,6.94,5.07,9.83,7.97C-943.1,566.17-940.43,569.48-938.04,573.13z M-1119.97,372.28c7.22-1.77,14.4-2.79,21.39-3.04
			c1.15-0.04,2.32-0.06,3.47-0.06c5.88,0,11.96,0.53,18.08,1.58c6.36,3.85,12.16,8.21,17.27,12.98c5.12,4.77,9.87,10.25,14.16,16.32
			c1.77,7.22,2.79,14.4,3.04,21.39c0.25,6.99-0.27,14.23-1.52,21.55c-3.85,6.36-8.21,12.16-12.98,17.27
			c-4.77,5.12-10.25,9.87-16.32,14.16c-7.22,1.77-14.4,2.79-21.39,3.04c-1.15,0.04-2.31,0.06-3.47,0.06
			c-5.89,0-11.96-0.53-18.08-1.58c-6.36-3.85-12.16-8.21-17.27-12.98c-5.12-4.77-9.87-10.25-14.16-16.32
			c-1.77-7.22-2.79-14.4-3.04-21.39c-0.25-6.99,0.27-14.23,1.52-21.55c3.85-6.36,8.21-12.16,12.98-17.27
			C-1131.52,381.33-1126.04,376.57-1119.97,372.28z"/>
	</g>
	<path class="st10" d="M-1244.1,1064.72c14.17,14.63,37.23,28.38,68.53,28.38c45.14,0,57.99-22.23,57.99-38.91
		c0-27.5-29.32-35.11-60.29-42.42c-34.59-8.48-71.49-17.26-71.49-53.25c0-31.89,32.29-52.08,72.15-52.08
		c32.95,0,57.33,10.24,74.46,27.5l-12.52,12.29c-15.81-16.97-38.22-24.58-62.93-24.58c-29.32,0-51.4,14.92-51.4,35.99
		c0,23.11,27.35,29.84,57.33,36.86c35.58,9.07,74.46,19.02,74.46,58.51c0,25.16-18.78,55.3-78.08,55.3
		c-36.24,0-63.59-12.87-80.39-31.01L-1244.1,1064.72z"/>
	<path class="st10" d="M-1052.67,1104.8V909.66h16.68v195.14H-1052.67z"/>
	<path class="st10" d="M-848.65,1104.8l-124.77-168.52v168.52h-16.93V909.66h17.23l124.18,166.18V909.66h16.93v195.14H-848.65z"/>
</g>
<g>
	<g>
		
			<linearGradient id="SVGID_00000002369383194153867570000011823784033256009859_" gradientUnits="userSpaceOnUse" x1="689.0764" y1="197.9489" x2="689.0764" y2="1275.4508">
			<stop  offset="0" style="stop-color:#56BDBB"/>
			<stop  offset="0.5335" style="stop-color:#754695"/>
			<stop  offset="1" style="stop-color:#282E69"/>
		</linearGradient>
		<path style="fill:url(#SVGID_00000002369383194153867570000011823784033256009859_);" d="M951.65,514.24
			c15.44-90.63,9.29-163.1,9.29-163.1s-14.29-1.22-38.12-1.22c-29.83,0-74.6,1.91-124.99,10.5
			c-53.17-75-108.76-121.89-108.76-121.89s-55.59,46.89-108.75,121.88c-50.39-8.58-95.16-10.49-124.99-10.49
			c-23.81,0-38.12,1.22-38.12,1.22s-6.15,72.47,9.29,163.1C351.5,567.41,304.61,623,304.61,623s46.89,55.59,121.89,108.76
			c-15.44,90.63-9.29,163.1-9.29,163.1s14.29,1.22,38.12,1.22c29.83,0,74.6-1.91,124.99-10.5c53.17,75,108.76,121.89,108.76,121.89
			s55.59-46.89,108.76-121.89c50.39,8.58,95.16,10.49,124.99,10.49c23.81,0,38.12-1.22,38.12-1.22s6.15-72.47-9.29-163.1
			c75-53.17,121.89-108.76,121.89-108.76S1026.65,567.41,951.65,514.24z M881.36,623c0,24.85-2.96,50.26-8.78,76.01
			c-14.09,22.33-29.96,42.38-47.53,59.96c-9.93,9.93-20.41,19.07-31.3,27.5c-35.64,11.26-70.72,16.95-104.67,16.95
			c-33.95,0-69.03-5.69-104.67-16.95c-10.89-8.43-21.37-17.57-31.3-27.5c-17.57-17.57-33.44-37.63-47.53-59.96
			c-5.82-25.75-8.78-51.16-8.78-76.01c0-24.85,2.96-50.26,8.78-76.01c14.09-22.33,29.96-42.39,47.53-59.96
			c9.93-9.93,20.41-19.07,31.3-27.5c35.64-11.26,70.72-16.95,104.67-16.95c33.95,0,69.03,5.69,104.67,16.95
			c10.89,8.43,21.37,17.57,31.3,27.5c17.57,17.57,33.44,37.63,47.53,59.96C878.4,572.74,881.36,598.15,881.36,623z M833.44,478.64
			c-2.6-2.6-5.25-5.13-7.91-7.63c1.16,0.47,2.32,0.92,3.49,1.4c7.77,3.22,15.56,6.71,23.36,10.44c4.02,9.98,7.63,19.93,10.82,29.84
			C854.11,500.84,844.23,489.43,833.44,478.64z M769.75,428.37c-20.54-12.81-41.99-23.57-63.75-32.59
			c29.38-10.06,58.76-17.21,86.51-22.27c17.67,25.52,32.84,51.26,45.39,76.91C816.14,441.4,793.34,433.84,769.75,428.37z
			 M734.04,421.87c-14.75-1.95-29.75-3.02-44.96-3.02c-15.21,0-30.21,1.08-44.96,3.02c14.75-7.54,29.81-14.16,44.96-19.95
			C704.23,407.71,719.29,414.32,734.04,421.87z M608.4,428.37c-23.59,5.47-46.39,13.03-68.16,22.04
			c12.55-25.65,27.72-51.38,45.39-76.91c27.76,5.06,57.14,12.21,86.52,22.27C650.4,404.8,628.94,415.56,608.4,428.37z
			 M549.14,472.41c1.16-0.48,2.32-0.93,3.49-1.4c-2.67,2.5-5.31,5.03-7.91,7.63c-10.79,10.79-20.67,22.2-29.75,34.06
			c3.19-9.91,6.8-19.86,10.82-29.84C533.58,479.12,541.37,475.63,549.14,472.41z M494.43,542.38c-12.82,20.56-23.6,42.03-32.63,63.8
			c-7.97-23.24-14.58-47.92-19.82-73.81c22.57-15.89,45.3-29.8,67.98-41.61C503.79,507.45,498.53,524.69,494.43,542.38z
			 M472.55,611.23c4.77-11.54,9.92-22.65,15.41-33.35c-1.96,14.8-3.04,29.85-3.04,45.12s1.09,30.32,3.04,45.12
			c-5.49-10.7-10.64-21.81-15.41-33.35c-1.6-3.86-3.12-7.81-4.63-11.77C469.44,619.05,470.96,615.1,472.55,611.23z M494.43,703.62
			c4.1,17.68,9.36,34.93,15.54,51.62c-22.68-11.81-45.41-25.72-67.98-41.61c5.23-25.89,11.85-50.57,19.82-73.81
			C470.83,661.6,481.61,683.07,494.43,703.62z M514.96,733.3c9.08,11.85,18.96,23.26,29.75,34.06c2.6,2.6,5.25,5.13,7.91,7.63
			c-1.16-0.47-2.32-0.92-3.49-1.4c-7.77-3.22-15.56-6.71-23.36-10.44C521.76,753.17,518.15,743.22,514.96,733.3z M608.4,817.63
			c20.54,12.81,41.99,23.57,63.75,32.59c-29.37,10.06-58.76,17.21-86.51,22.27c-17.67-25.52-32.85-51.26-45.39-76.9
			C562.01,804.6,584.81,812.16,608.4,817.63z M644.12,824.13c14.75,1.94,29.75,3.02,44.96,3.02c15.21,0,30.21-1.08,44.96-3.02
			c-14.75,7.54-29.81,14.16-44.96,19.95C673.93,838.29,658.87,831.68,644.12,824.13z M769.75,817.63
			c23.59-5.47,46.39-13.03,68.16-22.04c-12.55,25.65-27.72,51.38-45.39,76.91c-27.76-5.06-57.14-12.21-86.52-22.27
			C727.76,841.2,749.22,830.44,769.75,817.63z M829.01,773.59c-1.16,0.48-2.32,0.93-3.49,1.4c2.67-2.5,5.31-5.03,7.91-7.63
			c10.79-10.79,20.67-22.2,29.75-34.05c-3.19,9.91-6.8,19.86-10.82,29.84C844.57,766.88,836.78,770.37,829.01,773.59z
			 M883.72,703.62c12.82-20.56,23.6-42.03,32.63-63.8c7.97,23.24,14.58,47.92,19.82,73.81c-22.57,15.89-45.3,29.8-67.98,41.61
			C874.36,738.55,879.62,721.31,883.72,703.62z M905.73,634.46c-4.8,11.65-10,22.87-15.54,33.66c1.96-14.8,3.05-29.85,3.05-45.12
			c0-15.27-1.09-30.32-3.04-45.12c5.49,10.7,10.64,21.81,15.41,33.35c1.59,3.86,3.11,7.81,4.63,11.76
			C908.75,626.85,907.28,630.7,905.73,634.46z M883.72,542.38c-4.1-17.68-9.36-34.93-15.54-51.62
			c22.68,11.81,45.42,25.72,67.99,41.62c-5.23,25.89-11.85,50.56-19.82,73.8C907.32,584.4,896.54,562.93,883.72,542.38z
			 M922.82,361.8c11.34,0,20.5,0.28,26.88,0.57c0.96,21.56,1.86,74.99-7.95,138.78c-0.29,1.87-0.63,3.7-0.93,5.57
			c-25.97-17.67-55-34.75-86.37-49.09c-14.33-31.35-31.4-60.37-49.06-86.33C853.47,363.47,895.64,361.8,922.82,361.8z
			 M596.23,358.63c38.21-52.17,76.85-89.56,92.85-104.2c16,14.64,54.64,52.03,92.85,104.2c1.01,1.37,1.99,2.75,2.98,4.12
			c-30.87,5.87-63.49,14.31-95.82,26.36c-32.34-12.05-64.95-20.49-95.83-26.37C594.24,361.38,595.22,360,596.23,358.63z
			 M436.48,501.71c-9.88-63.92-8.99-117.69-8.03-139.35c6.39-0.29,15.55-0.57,26.89-0.57c0,0,0.01,0,0.01,0
			c27.17,0,69.34,1.68,117.41,9.49c-17.66,25.96-34.73,54.98-49.06,86.33c-31.37,14.34-60.4,31.42-86.37,49.09
			C437.05,505.04,436.74,503.4,436.48,501.71z M336.75,623c17.56-18.41,50.77-50.86,94.65-83.03c5.69,27.02,13.4,55.13,23.79,83.03
			c-10.4,27.9-18.1,56.01-23.79,83.03C387.52,673.86,354.31,641.41,336.75,623z M455.33,884.2c-11.34,0-20.49-0.28-26.88-0.57
			c-0.96-21.66-1.85-75.43,8.03-139.35c0.26-1.68,0.57-3.32,0.84-5c25.97,17.67,55,34.75,86.37,49.09
			c14.33,31.35,31.4,60.37,49.06,86.33C524.69,882.53,482.51,884.2,455.33,884.2z M781.92,887.37
			c-38.21,52.18-76.86,89.57-92.85,104.21c-15.93-14.57-54.33-51.71-92.5-103.74c-1.12-1.53-2.22-3.06-3.32-4.59
			c30.87-5.87,63.49-14.31,95.83-26.36c32.34,12.05,64.95,20.49,95.83,26.36C783.91,884.62,782.93,886,781.92,887.37z
			 M941.67,744.29c9.88,63.92,8.99,117.69,8.03,139.35c-6.39,0.29-15.55,0.57-26.88,0.57c-27.18,0-69.35-1.68-117.43-9.49
			c17.66-25.96,34.73-54.98,49.06-86.33c31.37-14.34,60.4-31.42,86.37-49.09C941.1,740.96,941.41,742.6,941.67,744.29z
			 M946.75,706.03c-5.69-27.02-13.4-55.13-23.79-83.03c10.4-27.9,18.1-56.01,23.79-83.03c43.88,32.17,77.09,64.62,94.65,83.03
			C1023.84,641.41,990.63,673.86,946.75,706.03z"/>
		
			<linearGradient id="SVGID_00000178895440548289190690000005240552172720543643_" gradientUnits="userSpaceOnUse" x1="561.8963" y1="197.9489" x2="561.8963" y2="1275.4508">
			<stop  offset="0" style="stop-color:#56BDBB"/>
			<stop  offset="0.5335" style="stop-color:#754695"/>
			<stop  offset="1" style="stop-color:#282E69"/>
		</linearGradient>
		<path style="fill:url(#SVGID_00000178895440548289190690000005240552172720543643_);" d="M607.79,294.78
			c-38.31-18.33-66.08-26.66-66.08-26.66s-12.9,25.97-25.71,66.46c17.14,0.92,36.49,2.69,57.06,5.84
			C584.81,323.25,596.75,307.92,607.79,294.78z M532.08,323.75c6.27-18.19,12.17-32.39,15.97-41.01
			c8.87,3.11,23.25,8.51,40.84,16.37c-7.48,9.38-14.64,18.91-21.39,28.5C555.89,325.98,544.04,324.69,532.08,323.75z"/>
		
			<linearGradient id="SVGID_00000089560092047446645470000003500792508905395375_" gradientUnits="userSpaceOnUse" x1="817.3201" y1="197.9489" x2="817.3201" y2="1275.4508">
			<stop  offset="0" style="stop-color:#56BDBB"/>
			<stop  offset="0.5335" style="stop-color:#754695"/>
			<stop  offset="1" style="stop-color:#282E69"/>
		</linearGradient>
		<path style="fill:url(#SVGID_00000089560092047446645470000003500792508905395375_);" d="M863.21,911.42
			c-17.14-0.92-36.49-2.69-57.06-5.84c-11.75,17.17-23.69,32.5-34.73,45.64c38.31,18.33,66.08,26.66,66.08,26.66
			S850.41,951.91,863.21,911.42z M790.32,946.89c7.48-9.37,14.64-18.91,21.39-28.49c11.61,1.63,23.46,2.92,35.42,3.86
			c-6.27,18.18-12.17,32.39-15.97,41.01C822.28,960.14,807.88,954.74,790.32,946.89z"/>
		
			<linearGradient id="SVGID_00000145029936289779223770000008899173623490983077_" gradientUnits="userSpaceOnUse" x1="370.7345" y1="197.9489" x2="370.7345" y2="1275.4508">
			<stop  offset="0" style="stop-color:#56BDBB"/>
			<stop  offset="0.5335" style="stop-color:#754695"/>
			<stop  offset="1" style="stop-color:#282E69"/>
		</linearGradient>
		<path style="fill:url(#SVGID_00000145029936289779223770000008899173623490983077_);" d="M407.38,505.6
			c-3.83-20.45-6.23-39.73-7.72-56.83c-40.05,14.13-65.58,27.88-65.58,27.88s9.24,27.48,28.82,65.17
			C375.67,530.34,390.61,517.91,407.38,505.6z M389.37,465.19c1.34,11.92,3.02,23.72,5.02,35.27c-9.36,7.06-18.65,14.53-27.78,22.32
			c-8.42-17.29-14.3-31.51-17.71-40.28C357.4,478.42,371.4,472.06,389.37,465.19z"/>
		
			<linearGradient id="SVGID_00000109739429978464548360000011082459248017319615_" gradientUnits="userSpaceOnUse" x1="1008.4821" y1="197.9489" x2="1008.4821" y2="1275.4508">
			<stop  offset="0" style="stop-color:#56BDBB"/>
			<stop  offset="0.5335" style="stop-color:#754695"/>
			<stop  offset="1" style="stop-color:#282E69"/>
		</linearGradient>
		<path style="fill:url(#SVGID_00000109739429978464548360000011082459248017319615_);" d="M971.84,740.4
			c3.83,20.45,6.23,39.73,7.72,56.83c40.05-14.13,65.58-27.88,65.58-27.88s-9.24-27.48-28.82-65.17
			C1003.54,715.66,988.61,728.09,971.84,740.4z M989.85,780.81c-1.34-11.92-3.02-23.72-5.02-35.27
			c9.36-7.06,18.65-14.53,27.78-22.32c8.42,17.29,14.3,31.51,17.71,40.29C1021.83,767.58,1007.85,773.93,989.85,780.81z"/>
		
			<linearGradient id="SVGID_00000008131243655719504840000015321360902380891530_" gradientUnits="userSpaceOnUse" x1="370.8773" y1="197.9489" x2="370.8773" y2="1275.4508">
			<stop  offset="0" style="stop-color:#56BDBB"/>
			<stop  offset="0.5335" style="stop-color:#754695"/>
			<stop  offset="1" style="stop-color:#282E69"/>
		</linearGradient>
		<path style="fill:url(#SVGID_00000008131243655719504840000015321360902380891530_);" d="M334.73,770.9
			c0,0,25.97,12.9,66.46,25.71c0.92-17.14,2.69-36.49,5.84-57.06c-17.17-11.75-32.5-23.69-45.64-34.73
			C343.06,743.13,334.73,770.9,334.73,770.9z M394.22,745.1c-1.63,11.61-2.92,23.46-3.86,35.42c-18.18-6.27-32.39-12.17-41.01-15.97
			c3.12-8.89,8.52-23.29,16.37-40.84C375.09,731.2,384.63,738.35,394.22,745.1z"/>
		
			<linearGradient id="SVGID_00000115514469204605057120000006630344793438936201_" gradientUnits="userSpaceOnUse" x1="1008.3393" y1="197.9489" x2="1008.3393" y2="1275.4508">
			<stop  offset="0" style="stop-color:#56BDBB"/>
			<stop  offset="0.5335" style="stop-color:#754695"/>
			<stop  offset="1" style="stop-color:#282E69"/>
		</linearGradient>
		<path style="fill:url(#SVGID_00000115514469204605057120000006630344793438936201_);" d="M1044.49,475.1
			c0,0-25.97-12.9-66.46-25.71c-0.92,17.14-2.69,36.49-5.84,57.06c17.17,11.75,32.5,23.69,45.64,34.73
			C1036.16,502.87,1044.49,475.1,1044.49,475.1z M985,500.9c1.63-11.61,2.92-23.46,3.86-35.42c18.18,6.27,32.39,12.17,41.01,15.97
			c-3.12,8.89-8.52,23.29-16.37,40.84C1004.12,514.8,994.59,507.65,985,500.9z"/>
		
			<linearGradient id="SVGID_00000172436079719989154730000002092897053045735840_" gradientUnits="userSpaceOnUse" x1="561.8964" y1="197.9489" x2="561.8964" y2="1275.4508">
			<stop  offset="0" style="stop-color:#56BDBB"/>
			<stop  offset="0.5335" style="stop-color:#754695"/>
			<stop  offset="1" style="stop-color:#282E69"/>
		</linearGradient>
		<path style="fill:url(#SVGID_00000172436079719989154730000002092897053045735840_);" d="M608.42,949.7
			c-11.47-12.77-23.91-27.7-36.21-44.48c-20.45,3.83-39.73,6.23-56.83,7.72c14.13,40.05,27.88,65.58,27.88,65.58
			S570.74,969.28,608.42,949.7z M567.08,918.22c7.06,9.36,14.53,18.65,22.32,27.78c-17.29,8.42-31.51,14.3-40.28,17.71
			c-4.08-8.49-10.44-22.49-17.3-40.46C543.72,921.9,555.52,920.22,567.08,918.22z"/>
		
			<linearGradient id="SVGID_00000048483000576818476030000011843739068522711703_" gradientUnits="userSpaceOnUse" x1="817.3201" y1="197.9489" x2="817.3201" y2="1275.4508">
			<stop  offset="0" style="stop-color:#56BDBB"/>
			<stop  offset="0.5335" style="stop-color:#754695"/>
			<stop  offset="1" style="stop-color:#282E69"/>
		</linearGradient>
		<path style="fill:url(#SVGID_00000048483000576818476030000011843739068522711703_);" d="M863.84,333.06
			c-14.13-40.05-27.88-65.58-27.88-65.58s-27.48,9.24-65.17,28.82c11.47,12.77,23.91,27.7,36.21,44.48
			C827.46,336.94,846.74,334.54,863.84,333.06z M830.11,282.3c4.08,8.49,10.44,22.49,17.3,40.46c-11.92,1.34-23.72,3.02-35.27,5.02
			c-7.06-9.36-14.53-18.65-22.32-27.78C807.12,291.59,821.33,285.71,830.11,282.3z"/>
		
			<linearGradient id="SVGID_00000160904062118559017290000009314904644446673815_" gradientUnits="userSpaceOnUse" x1="689.6083" y1="197.9489" x2="689.6083" y2="1275.4508">
			<stop  offset="0" style="stop-color:#56BDBB"/>
			<stop  offset="0.5335" style="stop-color:#754695"/>
			<stop  offset="1" style="stop-color:#282E69"/>
		</linearGradient>
		<path style="fill:url(#SVGID_00000160904062118559017290000009314904644446673815_);" d="M788.65,523.77
			c-13.42-13.42-28.19-24.82-43.72-34.51c-17.84-4.13-36.34-6.51-55.32-6.51c-5.79,0-11.52,0.25-17.21,0.67
			c-4.12-3.02-8.38-5.77-12.73-8.28c-8.33-1.62-16.91-2.54-25.64-2.54c-1.45,0-2.9,0.03-4.36,0.08c-10.25,0.36-20.2,2-29.76,4.57
			c-8.21,5.53-15.97,11.97-22.96,19.48c-6.99,7.5-12.87,15.7-17.81,24.28c-1.89,9.72-2.83,19.76-2.46,30.01
			c0.16,4.6,0.62,9.12,1.26,13.59c-0.62,0.97-1.25,1.93-1.86,2.9c-4.13,17.84-6.51,36.34-6.51,55.32c0,18.97,2.38,37.48,6.51,55.32
			c9.69,15.54,21.09,30.31,34.51,43.72c13.42,13.42,28.19,24.82,43.72,34.51c17.84,4.13,36.34,6.51,55.32,6.51
			c17.73,0,35.05-2.1,51.8-5.75c3.89,3.71,8.09,6.94,12.51,9.7c5.65,1.31,11.5,2.07,17.51,2.07c6.01,0,11.86-0.76,17.51-2.07
			c4.92-3.08,9.59-6.69,13.84-10.95c4.25-4.26,7.86-8.95,10.92-13.88c1.31-5.66,2.06-11.53,2.06-17.56c0-6.02-0.75-11.9-2.06-17.56
			c-1.61-2.59-3.38-5.1-5.3-7.53c5.31-6.87,10.24-13.96,14.77-21.23c4.13-17.84,6.51-36.34,6.51-55.32s-2.38-37.48-6.51-55.32
			C813.47,551.96,802.07,537.19,788.65,523.77z M804.35,710.75c0.96,4.64,1.45,9.24,1.45,13.7c0,4.46-0.49,9.06-1.45,13.69
			c-2.59,3.96-5.48,7.56-8.63,10.71c-3.14,3.15-6.72,6.05-10.67,8.64c-4.61,0.96-9.19,1.45-13.63,1.45c-4.44,0-9.01-0.49-13.63-1.45
			c-3.95-2.59-7.53-5.5-10.67-8.64c-3.14-3.15-6.04-6.75-8.63-10.71c-0.96-4.64-1.45-9.24-1.45-13.69c0-4.46,0.49-9.06,1.45-13.7
			c2.59-3.96,5.48-7.56,8.63-10.71c3.14-3.15,6.72-6.05,10.67-8.64c4.62-0.96,9.19-1.45,13.63-1.45c4.43,0,9.01,0.49,13.63,1.45
			c3.94,2.59,7.53,5.5,10.67,8.64C798.86,703.2,801.76,706.79,804.35,710.75z M607.05,492.94c7.83-1.92,15.62-3.03,23.2-3.29
			c1.24-0.04,2.51-0.07,3.76-0.07c6.38,0,12.97,0.58,19.61,1.72c6.89,4.18,13.19,8.91,18.73,14.07
			c5.55,5.17,10.71,11.11,15.36,17.69c1.92,7.83,3.03,15.62,3.29,23.2c0.27,7.58-0.29,15.43-1.65,23.37
			c-4.18,6.89-8.91,13.19-14.08,18.73c-5.17,5.55-11.11,10.71-17.69,15.36c-7.83,1.92-15.62,3.03-23.2,3.29
			c-1.24,0.04-2.51,0.07-3.76,0.07c-6.38,0-12.97-0.58-19.61-1.72c-6.89-4.18-13.18-8.9-18.73-14.08
			c-5.55-5.17-10.71-11.11-15.36-17.69c-1.92-7.83-3.03-15.62-3.29-23.2c-0.27-7.58,0.29-15.43,1.65-23.37
			c4.18-6.89,8.9-13.18,14.07-18.73C594.53,502.75,600.47,497.59,607.05,492.94z"/>
	</g>
	<g>
		<path class="st10" d="M1201,425.58c11.74,13.65,30.86,26.49,56.81,26.49c37.42,0,48.07-20.75,48.07-36.32
			c0-25.67-24.31-32.77-49.98-39.6c-28.68-7.92-59.26-16.11-59.26-49.71c0-29.77,26.76-48.61,59.81-48.61
			c27.31,0,47.52,9.56,61.72,25.67l-10.38,11.47c-13.11-15.84-31.68-22.94-52.17-22.94c-24.3,0-42.6,13.93-42.6,33.59
			c0,21.57,22.67,27.86,47.52,34.41c29.5,8.47,61.72,17.75,61.72,54.62c0,23.49-15.57,51.62-64.73,51.62
			c-30.04,0-52.71-12.02-66.64-28.95L1201,425.58z"/>
		<path class="st10" d="M1384.26,463V280.84h68.28c34.96,0,54.89,24.58,54.89,53.26s-20.21,53.26-54.89,53.26h-52.71V463H1384.26z
			 M1450.9,295.04h-51.07v78.11h51.07c24.03,0,40.15-16.11,40.15-39.06S1474.93,295.04,1450.9,295.04z"/>
		<path class="st10" d="M1646.45,277.83c53.26,0,88.49,40.97,88.49,94.22s-35.23,94.22-88.49,94.22
			c-53.53,0-88.48-40.97-88.48-94.22S1592.92,277.83,1646.45,277.83z M1646.45,292.03c-44.24,0-72.1,33.59-72.1,80.02
			c0,45.88,27.86,80.02,72.1,80.02c43.7,0,72.1-34.14,72.1-80.02C1718.55,325.63,1690.15,292.03,1646.45,292.03z"/>
		<path class="st10" d="M1819.61,448.8h88.21V463h-103.78v-78.66l-25.67,15.02v-14.47l25.67-15.02v-89.03h15.57v80.02l28.68-16.66
			v14.47l-28.68,16.66V448.8z"/>
		<path class="st10" d="M1966.27,463V280.84h115.52v14.2h-99.96v67.46h98.05v14.2h-98.05v72.1h99.96V463H1966.27z"/>
		<path class="st10" d="M2138.07,372.05c0-55.99,40.69-94.22,91.76-94.22c29.5,0,51.34,12.84,66.91,32.23l-13.11,8.47
			c-11.47-15.84-31.41-26.49-53.8-26.49c-42.33,0-75.38,32.5-75.38,80.02c0,46.97,33.04,80.02,75.38,80.02
			c22.39,0,42.33-10.65,53.8-26.49l13.11,8.19c-16.11,19.94-37.41,32.5-66.91,32.5C2178.76,466.28,2138.07,428.04,2138.07,372.05z"
			/>
		<path class="st10" d="M2344,463v-13.66l109.79-154.31H2344v-14.2h129.45v13.38L2363.66,448.8h111.7V463H2344z"/>
		<path class="st10" d="M2666.55,463l-114.7-157.31V463h-15.57V280.84h15.84l114.16,155.13V280.84h15.57V463H2666.55z"/>
		<path class="st10" d="M2884.22,463l-18.3-44.79h-96.96l-18.3,44.79h-17.48l74.56-182.16h19.39L2901.7,463H2884.22z
			 M2817.31,296.13l-43.42,107.88h87.12L2817.31,296.13z"/>
		<path class="st10" d="M1201,712.97V530.81h15.57v182.16H1201z"/>
		<path class="st10" d="M1416.75,712.97l-114.7-157.31v157.31h-15.57V530.81h15.84l114.16,155.13V530.81h15.57v182.16H1416.75z"/>
		<path class="st10" d="M1501.97,712.97V530.81h15.57v182.16H1501.97z"/>
		<path class="st10" d="M1580.63,622.03c0-55.99,40.69-94.22,91.76-94.22c29.5,0,51.34,12.84,66.91,32.23l-13.11,8.47
			c-11.47-15.84-31.41-26.49-53.8-26.49c-42.33,0-75.38,32.5-75.38,80.02c0,46.97,33.04,80.02,75.38,80.02
			c22.39,0,42.33-10.65,53.8-26.49l13.11,8.19c-16.11,19.94-37.41,32.5-66.91,32.5C1621.32,716.25,1580.63,678.02,1580.63,622.03z"
			/>
		<path class="st10" d="M1786.29,682.11c8.19,10.65,19.12,19.94,36.32,19.94c24.85,0,40.15-17.21,40.15-41.78V530.81h15.84v129.45
			c0,37.96-24.85,55.99-55.17,55.99c-19.67,0-34.68-6.83-46.7-22.4L1786.29,682.11z"/>
		<path class="st10" d="M2074.7,712.97l-18.3-44.79h-96.96l-18.3,44.79h-17.48l74.56-182.16h19.39l74.56,182.16H2074.7z
			 M2007.78,546.11l-43.42,107.88h87.12L2007.78,546.11z"/>
		<path class="st10" d="M2171.11,712.97V545.01h-59.54v-14.2h134.92v14.2h-59.54v167.96H2171.11z"/>
		<path class="st10" d="M2357.1,712.97v-77.84l-72.37-104.33h18.84l61.45,89.58l61.45-89.58h18.85l-72.38,104.33v77.84H2357.1z"/>
		<path class="st10" d="M2636.23,712.97l-43.7-156.49l-43.7,156.49h-17.48l-52.16-182.16h17.48l43.97,160.31l44.79-160.31h14.2
			l44.52,160.31l43.97-160.31h17.48l-51.89,182.16H2636.23z"/>
		<path class="st10" d="M2877.12,712.97l-18.3-44.79h-96.95l-18.3,44.79h-17.48l74.56-182.16h19.39l74.56,182.16H2877.12z
			 M2810.21,546.11l-43.43,107.88h87.12L2810.21,546.11z"/>
		<path class="st10" d="M1331.27,962.95l-114.7-157.31v157.31H1201V780.79h15.84L1331,935.91V780.79h15.57v182.16H1331.27z"/>
		<path class="st10" d="M1548.94,962.95l-18.3-44.79h-96.95l-18.3,44.79h-17.48l74.56-182.16h19.39l74.56,182.16H1548.94z
			 M1482.03,796.08l-43.43,107.88h87.12L1482.03,796.08z"/>
		<path class="st10" d="M1724.56,962.95l-51.07-75.38h-40.15v75.38h-15.57V780.79h68.01c31.41,0,55.44,19.94,55.44,53.25
			c0,33.05-23.49,51.35-50.52,52.44l52.71,76.47H1724.56z M1684.41,794.99h-51.07v78.38h51.07c24.03,0,40.42-16.39,40.42-39.33
			C1724.83,811.1,1708.44,794.99,1684.41,794.99z"/>
		<path class="st10" d="M1915.47,962.95l-75.1-85.75l-20.21,22.12v63.63h-15.57V780.79h15.57v99.68l87.94-99.68h19.93l-77.56,86.85
			l84.94,95.31H1915.47z"/>
		<path class="st10" d="M2056.13,777.78c53.26,0,88.49,40.97,88.49,94.22c0,53.26-35.23,94.22-88.49,94.22
			c-53.53,0-88.48-40.97-88.48-94.22C1967.64,818.75,2002.6,777.78,2056.13,777.78z M2056.13,791.98c-44.24,0-72.1,33.59-72.1,80.02
			c0,45.88,27.86,80.02,72.1,80.02c43.7,0,72.1-34.14,72.1-80.02C2128.23,825.58,2099.83,791.98,2056.13,791.98z"/>
		<path class="st10" d="M2207.71,962.95V780.79h68.28c34.96,0,54.9,24.58,54.9,53.25c0,28.68-20.21,53.26-54.9,53.26h-52.71v75.65
			H2207.71z M2274.35,794.99h-51.07v78.11h51.07c24.03,0,40.15-16.11,40.15-39.06C2314.5,811.1,2298.38,794.99,2274.35,794.99z"/>
		<path class="st10" d="M2469.91,777.78c53.26,0,88.49,40.97,88.49,94.22c0,53.26-35.23,94.22-88.49,94.22
			c-53.53,0-88.49-40.97-88.49-94.22C2381.42,818.75,2416.38,777.78,2469.91,777.78z M2469.91,791.98
			c-44.25,0-72.1,33.59-72.1,80.02c0,45.88,27.86,80.02,72.1,80.02c43.7,0,72.1-34.14,72.1-80.02
			C2542,825.58,2513.6,791.98,2469.91,791.98z"/>
		<path class="st10" d="M2621.49,962.95V780.79h15.57v167.96h88.21v14.2H2621.49z"/>
		<path class="st10" d="M2783.72,962.95V780.79h15.57v182.16H2783.72z"/>
		<path class="st10" d="M2915.63,962.95V794.99h-59.53v-14.2h134.91v14.2h-59.53v167.96H2915.63z"/>
		<path class="st10" d="M3101.63,962.95v-77.84l-72.37-104.33h18.84l61.45,89.58l61.45-89.58h18.85l-72.38,104.33v77.84H3101.63z"/>
		<path class="st10" d="M3352.08,962.95l-75.1-85.75l-20.21,22.12v63.63h-15.57V780.79h15.57v99.68l87.94-99.68h19.93l-77.56,86.85
			l84.94,95.31H3352.08z"/>
		<path class="st10" d="M3425.82,962.95V780.79h15.57v182.16H3425.82z"/>
	</g>
</g>
</svg>
